# xmcd
#
# Track frame offsets: 
#        150
#        9972
#        23480
#        39056
#        50850
#        66414
#        78497
#        86895
#        101274
#        112492
#        127050
#        143286
#        156721
#        164996
#        179107
#        187756
#
# Disc length: 2604 seconds
#
# Revision: 0
# Processed by: cddbd v1.5.2PL0 Copyright (c) Steve Scherf et al.
# Submitted via: ExactAudioCopy v1.0b6
#
DISCID=e00a2a10
DTITLE=Sandrinha Andrade - Sandrinha Andadre - As Melhores De... Sandr
DTITLE=inha Andrade
DYEAR=1900
DGENRE=Polka
TTITLE0=Toda Uma Vida 
TTITLE1=Eu Encontrei O Amor
TTITLE2=Só Quero Ter Você
TTITLE3=Cafajeste
TTITLE4=Acabou A Paixão
TTITLE5=Diz Pra Mim
TTITLE6=Mulher De Meia Cara
TTITLE7=Grande Paixão
TTITLE8=Voltei Porque Te Amo
TTITLE9=Casou Em Crise
TTITLE10=Paredão
TTITLE11=Solo Maestro Janjão - Amor Proibido
TTITLE12=You Quero Pagar
TTITLE13=Quero Mais
TTITLE14=Lero Lero Do Amor
TTITLE15=Amor Safadinho
EXTD=
EXTT0=
EXTT1=
EXTT2=
EXTT3=
EXTT4=
EXTT5=
EXTT6=
EXTT7=
EXTT8=
EXTT9=
EXTT10=
EXTT11=
EXTT12=
EXTT13=
EXTT14=
EXTT15=
PLAYORDER=
